<?xml version="1.0" encoding="UTF-8" standalone="no"?>
<svg width="200" height="200" xmlns="http://www.w3.org/2000/svg">
  <path d="M100,20 C140,20 180,50 180,100 C180,150 140,180 100,180 C60,180 20,150 20,100 C20,50 60,20 100,20 Z M100,40 C70,40 40,60 40,100 C40,140 70,160 100,160 C130,160 160,140 160,100 C160,60 130,40 100,40 Z M70,80 C80,70 120,70 130,80 M70,120 C80,130 120,130 130,120 M60,100 C70,90 80,90 90,100 M110,100 C120,90 130,90 140,100" fill="#aa88aa" stroke="#553355" stroke-width="2"/>
</svg>
